# File created by Blade
# Date/Time:  Mon Sep 22 16:45:27 2014
# Frame Rate: 120.000 fps
#------------------------------------------------------
:FULLY-SPECIFIED
:DEGREES
1620
root 2.795461 37.023390 0.957590 -20.707745 13.697096 10.838650
RightUpLeg 21.786237 -11.442790 -5.802708
RightLeg 14.291087 -0.000000 -0.000000
RightFoot -22.536547 -23.915721 8.875437
RightToeBase 5.821149 -0.000000 -0.000000
LeftUpLeg -61.885569 29.386223 4.668616
LeftLeg 86.365712 -0.000000 -0.000000
LeftFoot 7.171439 21.403178 -30.075246
LeftToeBase 0.961617 -0.000000 -0.000000
Spine 30.171570 5.738535 0.142995
RightShoulder 2.479333 -14.661143 -15.945943
RightArm 20.459599 25.668177 50.571349
RightForeArm 19.662561 -0.000000 96.399965
RightHand 8.108605 -0.000000 -31.126550
RightHandThumb1 -24.326973 -0.000000 -32.862282
LeftShoulder -29.786084 36.306854 -8.443839
LeftArm 26.285495 0.315390 -75.618285
LeftForeArm 29.734777 -0.000000 29.812841
LeftHand -13.953074 -0.000000 -18.617766
LeftHandThumb1 -26.253704 0.000000 33.147579
Head 12.729944 -6.626811 -6.532667
1621
root 2.788221 37.031708 0.959954 -20.677842 13.649404 10.899633
RightUpLeg 21.808117 -11.415533 -5.848408
RightLeg 14.201045 -0.000000 -0.000000
RightFoot -22.469632 -23.878424 8.851940
RightToeBase 5.776171 -0.000000 -0.000000
LeftUpLeg -61.845976 29.460132 4.609909
LeftLeg 86.436552 -0.000000 -0.000000
LeftFoot 6.875146 21.479485 -29.871071
LeftToeBase 0.882560 -0.000000 -0.000000
Spine 30.108415 5.783341 0.082844
RightShoulder 2.541020 -14.667190 -15.963807
RightArm 20.447923 25.607257 50.630278
RightForeArm 19.714869 -0.000000 96.374596
RightHand 8.105061 -0.000000 -31.227968
RightHandThumb1 -24.326973 -0.000000 -32.862282
LeftShoulder -29.663304 36.363541 -8.340316
LeftArm 26.285498 0.210679 -75.721002
LeftForeArm 29.676682 -0.000000 29.718417
LeftHand -13.942385 -0.000000 -18.596711
LeftHandThumb1 -26.253704 0.000000 33.147579
Head 12.752192 -6.591660 -6.549650
1622
root 2.782355 37.037003 0.968064 -20.626205 13.589831 10.929173
RightUpLeg 21.820112 -11.461158 -5.897329
RightLeg 14.097813 -0.000000 -0.000000
RightFoot -22.406401 -23.770388 8.828602
RightToeBase 5.800096 -0.000000 -0.000000
LeftUpLeg -61.858384 29.537125 4.606349
LeftLeg 86.632334 -0.000000 -0.000000
LeftFoot 6.510879 21.417630 -29.837678
LeftToeBase 0.984946 -0.000000 -0.000000
Spine 30.004164 5.783155 0.033989
RightShoulder 2.609446 -14.651491 -15.973807
RightArm 20.428433 25.501526 50.652109
RightForeArm 19.732069 -0.000000 96.354754
RightHand 8.086817 -0.000000 -31.251234
RightHandThumb1 -24.326973 -0.000000 -32.862282
LeftShoulder -29.654008 36.390999 -8.292884
LeftArm 26.289350 0.187480 -75.766662
LeftForeArm 29.658691 -0.000000 29.600904
LeftHand -13.871221 0.000000 -18.588688
LeftHandThumb1 -26.253704 0.000000 33.147579
Head 12.733607 -6.539358 -6.566347
1623
root 2.776449 37.040416 0.976392 -20.552948 13.501567 10.934744
RightUpLeg 21.791428 -11.528334 -5.922316
RightLeg 14.015179 -0.000000 -0.000000
RightFoot -22.489320 -23.560805 8.968401
RightToeBase 6.002350 -0.000000 -0.000000
LeftUpLeg -61.934299 29.637705 4.610709
LeftLeg 86.997572 -0.000000 -0.000000
LeftFoot 6.018760 21.265698 -29.667393
LeftToeBase 1.032585 -0.000000 -0.000000
Spine 29.867274 5.778317 0.026026
RightShoulder 2.675471 -14.645828 -15.996062
RightArm 20.429520 25.409365 50.677829
RightForeArm 19.788481 -0.000000 96.346613
RightHand 8.174921 -0.000000 -31.397675
RightHandThumb1 -24.326973 -0.000000 -32.862282
LeftShoulder -29.672173 36.408569 -8.296779
LeftArm 26.289772 0.212585 -75.741069
LeftForeArm 29.623148 -0.000000 29.529996
LeftHand -13.924593 -0.000000 -18.622898
LeftHandThumb1 -26.253704 0.000000 33.147579
Head 12.699671 -6.419136 -6.587398
1624
root 2.771813 37.042320 0.985643 -20.475627 13.408537 10.942956
RightUpLeg 21.762035 -11.633734 -5.978204
RightLeg 13.941001 -0.000000 -0.000000
RightFoot -22.471836 -23.342804 8.979144
RightToeBase 6.077479 -0.000000 -0.000000
LeftUpLeg -62.047249 29.749919 4.611242
LeftLeg 87.577028 -0.000000 -0.000000
LeftFoot 5.443331 20.937997 -29.258196
LeftToeBase 1.270835 -0.000000 -0.000000
Spine 29.721180 5.803110 0.027092
RightShoulder 2.714564 -14.663215 -15.994655
RightArm 20.433447 25.319953 50.668302
RightForeArm 19.844409 -0.000000 96.346092
RightHand 8.220524 -0.000000 -31.516499
RightHandThumb1 -24.326973 -0.000000 -32.862282
LeftShoulder -29.647905 36.415571 -8.260812
LeftArm 26.269172 0.260064 -75.696019
LeftForeArm 29.552530 -0.000000 29.457238
LeftHand -13.942799 -0.000000 -18.707074
LeftHandThumb1 -26.253704 0.000000 33.147579
Head 12.667464 -6.372564 -6.602617
1625
root 2.769181 37.042936 0.996266 -20.407768 13.294822 10.935340
RightUpLeg 21.735232 -11.738107 -6.028623
RightLeg 13.883626 -0.000000 -0.000000
RightFoot -22.408303 -23.113426 8.908407
RightToeBase 6.030809 -0.000000 -0.000000
LeftUpLeg -62.190136 29.855202 4.669393
LeftLeg 88.453745 -0.000000 -0.000000
LeftFoot 4.863205 20.402724 -28.705444
LeftToeBase 0.916131 -0.000000 -0.000000
Spine 29.579984 5.853892 0.073634
RightShoulder 2.727180 -14.659660 -15.984082
RightArm 20.410271 25.225419 50.624618
RightForeArm 19.885432 -0.000000 96.353238
RightHand 8.256211 -0.000000 -31.643811
RightHandThumb1 -24.326973 -0.000000 -32.862282
LeftShoulder -29.594098 36.424056 -8.204604
LeftArm 26.252656 0.307442 -75.664681
LeftForeArm 29.447638 -0.000000 29.355538
LeftHand -13.814959 -0.000000 -18.708542
LeftHandThumb1 -26.253704 0.000000 33.147579
Head 12.638198 -6.352868 -6.629221
1626
root 2.771905 37.045158 1.009757 -20.362976 13.192146 10.958657
RightUpLeg 21.746702 -11.845995 -6.131925
RightLeg 13.832959 -0.000000 -0.000000
RightFoot -22.314191 -22.904620 8.770134
RightToeBase 5.898013 -0.000000 -0.000000
LeftUpLeg -62.344361 29.946864 4.711226
LeftLeg 89.656990 -0.000000 -0.000000
LeftFoot 4.345110 19.745921 -27.651049
LeftToeBase 0.451089 -0.000000 -0.000000
Spine 29.463266 5.878113 0.079058
RightShoulder 2.767250 -14.695860 -15.966691
RightArm 20.430577 25.173377 50.575706
RightForeArm 19.935184 -0.000000 96.359739
RightHand 8.283708 -0.000000 -31.740308
RightHandThumb1 -24.326973 -0.000000 -32.862282
LeftShoulder -29.599109 36.462048 -8.198531
LeftArm 26.289944 0.346403 -75.626260
LeftForeArm 29.476582 -0.000000 29.252657
LeftHand -13.794205 -0.000000 -18.699241
LeftHandThumb1 -26.253704 0.000000 33.147579
Head 12.619139 -6.278035 -6.648680
1627
root 2.776668 37.045986 1.035599 -20.394671 13.025502 10.932427
RightUpLeg 21.838158 -11.809855 -6.128810
RightLeg 13.745300 -0.000000 -0.000000
RightFoot -22.244494 -22.791001 8.687717
RightToeBase 5.839010 -0.000000 -0.000000
LeftUpLeg -62.510751 30.088492 4.865656
LeftLeg 91.303144 -0.000000 -0.000000
LeftFoot 4.323910 19.068142 -25.758829
LeftToeBase -0.548451 -0.000000 0.000000
Spine 29.397149 5.919557 0.181121
RightShoulder 2.812515 -14.688296 -15.980437
RightArm 20.403267 25.092757 50.497426
RightForeArm 20.033466 0.000000 96.373828
RightHand 8.310040 -0.000000 -31.859152
RightHandThumb1 -24.326973 -0.000000 -32.862282
LeftShoulder -29.613322 36.469413 -8.196379
LeftArm 26.285682 0.410100 -75.593309
LeftForeArm 29.432334 -0.000000 29.142533
LeftHand -13.693735 0.000000 -18.883816
LeftHandThumb1 -26.253704 0.000000 33.147579
Head 12.602421 -6.196338 -6.710404
1628
root 2.786432 37.048782 1.060622 -20.452808 12.902974 10.943718
RightUpLeg 21.955560 -11.765062 -6.176669
RightLeg 13.693228 -0.000000 -0.000000
RightFoot -22.181590 -22.691449 8.640246
RightToeBase 5.746082 -0.000000 -0.000000
LeftUpLeg -62.692359 30.146520 5.002841
LeftLeg 93.327169 -0.000000 -0.000000
LeftFoot 4.863693 18.467192 -23.655801
LeftToeBase -2.400752 -0.000000 0.000000
Spine 29.384621 5.911047 0.216726
RightShoulder 2.886807 -14.625859 -15.983314
RightArm 20.345908 25.028273 50.402589
RightForeArm 20.158882 -0.000000 96.388315
RightHand 8.346107 -0.000000 -31.873883
RightHandThumb1 -24.326973 -0.000000 -32.862282
LeftShoulder -29.611592 36.435234 -8.184305
LeftArm 26.225283 0.404557 -75.581974
LeftForeArm 29.464667 -0.000000 29.081159
LeftHand -13.609686 0.000000 -19.003645
LeftHandThumb1 -26.253704 0.000000 33.147579
Head 12.534009 -6.123077 -6.743984
1629
root 2.799861 37.053245 1.093673 -20.585751 12.789699 10.981536
RightUpLeg 22.154801 -11.657691 -6.244114
RightLeg 13.658443 -0.000000 -0.000000
RightFoot -22.170491 -22.643356 8.661491
RightToeBase 5.716433 -0.000000 -0.000000
LeftUpLeg -62.791241 30.173752 5.213042
LeftLeg 95.722551 -0.000000 -0.000000
LeftFoot 5.862882 17.953188 -22.396540
LeftToeBase -4.566920 -0.000000 0.000000
Spine 29.461808 5.914420 0.219586
RightShoulder 2.939561 -14.585158 -15.957188
RightArm 20.325707 24.993330 50.310240
RightForeArm 20.312774 -0.000000 96.399667
RightHand 8.342900 -0.000000 -31.842774
RightHandThumb1 -24.326973 -0.000000 -32.862282
LeftShoulder -29.625508 36.404150 -8.162058
LeftArm 26.192055 0.383626 -75.580989
LeftForeArm 29.545219 -0.000000 29.021510
LeftHand -13.583438 -0.000000 -19.181128
LeftHandThumb1 -26.253704 0.000000 33.147579
Head 12.432862 -6.043893 -6.716973
1630
root 2.817615 37.056549 1.129099 -20.737716 12.746016 11.043610
RightUpLeg 22.354041 -11.708759 -6.429495
RightLeg 13.730374 -0.000000 -0.000000
RightFoot -22.174437 -22.484720 8.654960
RightToeBase 5.628368 -0.000000 -0.000000
LeftUpLeg -62.883889 30.051999 5.424951
LeftLeg 98.431097 -0.000000 -0.000000
LeftFoot 7.225794 17.742204 -22.067852
LeftToeBase -5.700281 -0.000000 0.000000
Spine 29.555622 5.892181 0.176775
RightShoulder 2.982055 -14.558535 -15.901640
RightArm 20.295350 24.984690 50.197340
RightForeArm 20.476244 -0.000000 96.411565
RightHand 8.333685 -0.000000 -31.804282
RightHandThumb1 -24.326973 -0.000000 -32.862282
LeftShoulder -29.599418 36.409670 -8.084668
LeftArm 26.192209 0.377040 -75.592828
LeftForeArm 29.436327 0.000000 28.899441
LeftHand -13.457351 -0.000000 -19.188935
LeftHandThumb1 -26.253704 0.000000 33.147579
Head 12.353547 -5.961316 -6.640473
1631
root 2.832232 37.061388 1.176040 -20.945196 12.609934 10.996810
RightUpLeg 22.610772 -11.387691 -6.292700
RightLeg 13.641073 -0.000000 -0.000000
RightFoot -22.735061 -22.246298 9.910877
RightToeBase 6.356620 -0.000000 -0.000000
LeftUpLeg -62.885797 29.973578 5.927848
LeftLeg 101.456501 -0.000000 -0.000000
LeftFoot 8.841261 17.489605 -22.496524
LeftToeBase -4.836336 -0.000000 0.000000
Spine 29.649254 5.880721 0.308046
RightShoulder 3.041990 -14.565184 -15.869830
RightArm 20.258403 24.974305 50.034194
RightForeArm 20.607276 0.000000 96.422962
RightHand 8.268683 0.000000 -31.806404
RightHandThumb1 -24.326973 -0.000000 -32.862282
LeftShoulder -29.588753 36.424493 -8.099400
LeftArm 26.166058 0.360583 -75.564046
LeftForeArm 29.448407 -0.000000 28.824986
LeftHand -13.471150 -0.000000 -19.223689
LeftHandThumb1 -26.253704 0.000000 33.147579
Head 12.343873 -5.872359 -6.633593
